<?xml version="1.0" encoding="utf-8"?>
<!-- Generator: Adobe Illustrator 22.0.1, SVG Export Plug-In . SVG Version: 6.00 Build 0)  -->
<svg version="1.1" id="Layer_1" xmlns="http://www.w3.org/2000/svg" xmlns:xlink="http://www.w3.org/1999/xlink" x="0px" y="0px"
	 viewBox="0 0 480 492" style="enable-background:new 0 0 480 492;" xml:space="preserve">
<style type="text/css">
	.st0{fill:#6DBE47;}
	.st1{fill:#38C5ED;}
	.st2{fill:#FFFFFF;}
	.st3{fill:none;stroke:url(#SVGID_1_);stroke-width:4.5705;stroke-miterlimit:10;}
	.st4{clip-path:url(#SVGID_5_);fill:url(#SVGID_6_);}
	.st5{fill:none;stroke:#59A5AD;stroke-miterlimit:10;}
	.st6{fill:none;}
	.st7{clip-path:url(#SVGID_8_);fill:url(#SVGID_9_);}
	.st8{fill:#56C1AF;}
	.st9{stroke:#59A5AD;stroke-width:3;stroke-miterlimit:10;}
	.st10{stroke:#59A5AD;stroke-width:2;stroke-miterlimit:10;}
	.st11{fill:url(#SVGID_10_);}
	.st12{clip-path:url(#SVGID_14_);fill:url(#SVGID_15_);}
	.st13{fill:url(#SVGID_16_);}
	.st14{fill:none;stroke:url(#SVGID_17_);stroke-width:4.5705;stroke-miterlimit:10;}
	.st15{fill:none;stroke:#B2B2B2;stroke-miterlimit:10;}
	.st16{fill:#B2B2B2;}
	.st17{fill:none;stroke:url(#SVGID_18_);stroke-width:2;stroke-miterlimit:10;}
	.st18{fill:none;stroke:url(#SVGID_19_);stroke-width:3.1167;stroke-miterlimit:10;}
	.st19{fill:none;stroke:url(#SVGID_20_);stroke-width:2.3162;stroke-miterlimit:10;}
	.st20{fill:none;stroke:url(#SVGID_21_);stroke-width:7.04;stroke-miterlimit:10;}
	.st21{clip-path:url(#SVGID_35_);fill:url(#SVGID_36_);}
	.st22{fill:url(#SVGID_37_);}
	.st23{fill:none;stroke:url(#SVGID_38_);stroke-width:4.5705;stroke-miterlimit:10;}
	.st24{clip-path:url(#SVGID_40_);fill:url(#SVGID_41_);}
	.st25{clip-path:url(#SVGID_43_);fill:url(#SVGID_44_);}
	.st26{clip-path:url(#SVGID_46_);fill:url(#SVGID_47_);}
	.st27{fill:url(#SVGID_48_);}
	.st28{fill:none;stroke:url(#SVGID_49_);stroke-width:4.5705;stroke-miterlimit:10;}
	.st29{fill:none;stroke:url(#SVGID_50_);stroke-width:2;stroke-miterlimit:10;}
	.st30{fill:none;stroke:url(#SVGID_51_);stroke-width:2;stroke-miterlimit:10;}
	.st31{clip-path:url(#SVGID_55_);fill:url(#SVGID_56_);}
	.st32{fill:url(#SVGID_57_);}
	.st33{fill:none;stroke:url(#SVGID_58_);stroke-width:4.5705;stroke-miterlimit:10;}
	.st34{fill:url(#SVGID_59_);}
	.st35{clip-path:url(#SVGID_61_);fill:url(#SVGID_62_);}
	.st36{clip-path:url(#SVGID_64_);fill:url(#SVGID_65_);}
	.st37{fill:none;stroke:url(#SVGID_66_);stroke-width:3.1167;stroke-miterlimit:10;}
	.st38{fill:none;stroke:url(#SVGID_67_);stroke-width:2.3162;stroke-miterlimit:10;}
	.st39{fill:none;stroke:url(#SVGID_68_);stroke-width:7.04;stroke-miterlimit:10;}
	.st40{fill:url(#SVGID_69_);}
	.st41{fill:none;stroke:url(#SVGID_70_);stroke-miterlimit:10;}
	.st42{fill:none;stroke:url(#SVGID_71_);stroke-miterlimit:10;}
	.st43{fill:none;stroke:url(#SVGID_72_);stroke-miterlimit:10;}
	.st44{fill:url(#SVGID_73_);}
	.st45{fill:url(#SVGID_74_);}
	.st46{fill:url(#SVGID_75_);}
	.st47{fill:url(#SVGID_76_);}
	.st48{fill:url(#SVGID_77_);}
	.st49{fill:url(#SVGID_78_);}
	.st50{fill:url(#SVGID_79_);}
	.st51{clip-path:url(#SVGID_81_);fill:url(#SVGID_82_);}
	.st52{fill:none;stroke:#B2B2B2;stroke-width:5.1233;stroke-miterlimit:10;}
	.st53{fill:url(#SVGID_83_);}
</style>
<g>
	<path class="st16" d="M331.1,129.6H169.9c-37.5,0-67.9,30.4-67.9,67.9v97c0,37.5,30.4,67.9,67.9,67.9h161.2
		c37.5,0,67.9-30.4,67.9-67.9v-97C399.1,160,368.7,129.6,331.1,129.6z M379,294.2c0,26.5-21.7,48.2-48.2,48.2H169.9
		c-26.3,0-47.9-21.5-47.9-47.9v-97c0-26.3,21.5-47.9,47.9-47.9h161.2c26.3,0,47.9,21.5,47.9,47.9V294.2z"/>
	<path class="st16" d="M331.1,149.6H169.9c-26.3,0-47.9,21.5-47.9,47.9v97c0,26.3,21.5,47.9,47.9,47.9h160.9
		c26.5,0,48.2-21.7,48.2-48.2v-96.7C379,171.2,357.5,149.6,331.1,149.6z M358,208.4L275.8,279c-8.1,6.5-17.4,9.6-27.3,9.6
		c-9.9,0-19.8-3.4-27.7-10.2L144,208.1c-4.1-3.7-4.3-10-0.6-14.2c3.8-4.1,10.1-4.3,14.2-0.6l76.4,70.1c8.1,6.9,20.4,7.1,29,0.2
		l82-70.5v-0.1c4.2-3.6,10.5-3.2,14.2,1C362.7,198.4,362.2,204.7,358,208.4z"/>
</g>
</svg>
