<?xml version="1.0" encoding="utf-8"?>
<!-- Generator: Adobe Illustrator 22.0.1, SVG Export Plug-In . SVG Version: 6.00 Build 0)  -->
<svg version="1.1" id="Layer_1" xmlns="http://www.w3.org/2000/svg" xmlns:xlink="http://www.w3.org/1999/xlink" x="0px" y="0px"
	 viewBox="0 0 1908 495.5" style="enable-background:new 0 0 1908 495.5;" xml:space="preserve">
<style type="text/css">
	.st0{fill:#6DBE47;}
	.st1{fill:#38C5ED;}
	.st2{fill:#FFFFFF;}
	.st3{fill:none;stroke:url(#SVGID_1_);stroke-width:4.5705;stroke-miterlimit:10;}
	.st4{clip-path:url(#SVGID_5_);fill:url(#SVGID_6_);}
	.st5{fill:none;stroke:#59A5AD;stroke-miterlimit:10;}
	.st6{fill:none;}
	.st7{clip-path:url(#SVGID_8_);fill:url(#SVGID_9_);}
	.st8{fill:#56C1AF;}
	.st9{stroke:#59A5AD;stroke-width:3;stroke-miterlimit:10;}
	.st10{stroke:#59A5AD;stroke-width:2;stroke-miterlimit:10;}
	.st11{fill:url(#SVGID_10_);}
	.st12{clip-path:url(#SVGID_14_);fill:url(#SVGID_15_);}
	.st13{fill:url(#SVGID_16_);}
	.st14{fill:none;stroke:url(#SVGID_17_);stroke-width:4.5705;stroke-miterlimit:10;}
	.st15{fill:none;stroke:#B2B2B2;stroke-miterlimit:10;}
	.st16{fill:#B2B2B2;}
	.st17{fill:none;stroke:url(#SVGID_18_);stroke-width:2;stroke-miterlimit:10;}
	.st18{fill:none;stroke:url(#SVGID_19_);stroke-width:3.1167;stroke-miterlimit:10;}
	.st19{fill:none;stroke:url(#SVGID_20_);stroke-width:2.3162;stroke-miterlimit:10;}
	.st20{fill:none;stroke:url(#SVGID_21_);stroke-width:7.04;stroke-miterlimit:10;}
	.st21{clip-path:url(#SVGID_35_);fill:url(#SVGID_36_);}
	.st22{fill:url(#SVGID_37_);}
	.st23{fill:none;stroke:url(#SVGID_38_);stroke-width:4.5705;stroke-miterlimit:10;}
	.st24{clip-path:url(#SVGID_40_);fill:url(#SVGID_41_);}
	.st25{clip-path:url(#SVGID_43_);fill:url(#SVGID_44_);}
	.st26{clip-path:url(#SVGID_46_);fill:url(#SVGID_47_);}
	.st27{fill:url(#SVGID_48_);}
	.st28{fill:none;stroke:url(#SVGID_49_);stroke-width:4.5705;stroke-miterlimit:10;}
	.st29{fill:none;stroke:url(#SVGID_50_);stroke-width:2;stroke-miterlimit:10;}
	.st30{fill:none;stroke:url(#SVGID_51_);stroke-width:2;stroke-miterlimit:10;}
	.st31{clip-path:url(#SVGID_55_);fill:url(#SVGID_56_);}
	.st32{fill:url(#SVGID_57_);}
	.st33{fill:none;stroke:url(#SVGID_58_);stroke-width:4.5705;stroke-miterlimit:10;}
	.st34{fill:url(#SVGID_59_);}
	.st35{clip-path:url(#SVGID_61_);fill:url(#SVGID_62_);}
	.st36{clip-path:url(#SVGID_64_);fill:url(#SVGID_65_);}
	.st37{fill:none;stroke:url(#SVGID_66_);stroke-width:3.1167;stroke-miterlimit:10;}
	.st38{fill:none;stroke:url(#SVGID_67_);stroke-width:2.3162;stroke-miterlimit:10;}
	.st39{fill:none;stroke:url(#SVGID_68_);stroke-width:7.04;stroke-miterlimit:10;}
	.st40{fill:url(#SVGID_69_);}
	.st41{fill:none;stroke:url(#SVGID_70_);stroke-miterlimit:10;}
	.st42{fill:none;stroke:url(#SVGID_71_);stroke-miterlimit:10;}
	.st43{fill:none;stroke:url(#SVGID_72_);stroke-miterlimit:10;}
	.st44{fill:url(#SVGID_73_);}
	.st45{fill:url(#SVGID_74_);}
	.st46{fill:url(#SVGID_75_);}
	.st47{fill:url(#SVGID_76_);}
	.st48{fill:url(#SVGID_77_);}
	.st49{fill:url(#SVGID_78_);}
	.st50{fill:url(#SVGID_79_);}
	.st51{clip-path:url(#SVGID_81_);fill:url(#SVGID_82_);}
	.st52{fill:none;stroke:#B2B2B2;stroke-width:5.1233;stroke-miterlimit:10;}
	.st53{fill:url(#SVGID_83_);}
</style>
<g>
	<g>
		<g>
			<path class="st2" d="M1111.3,311.9c-0.2-18.8-0.1-37.7-0.1-56.5c0-2.3-0.1-4.5-0.6-6.7c-3.1-13.5-14.2-22.5-28.2-22.6
				c-35.2-0.1-70.5-0.1-105.7,0c-16.7,0-29,12.6-29,29.2c0,18.9,0,37.8,0,56.7c0,3.4,0.4,6.7,1.5,9.8c4.2,12,14.7,19.4,27.8,19.4
				c17.4,0,34.8,0,52.2,0c17.6,0,35.2,0,52.8,0C1099.5,341.2,1111.5,327.4,1111.3,311.9z M1046.1,288.9
				c-12.5,6.6-24.9,13.2-37.4,19.9c-1.7,0.9-1.7,0.9-1.7-1.1c0-16.5,0-33,0-49.5c0-1-0.4-2.2,1.5-1.2c15.8,8.5,31.6,16.9,47.4,25.3
				c0.3,0.2,0.6,0.4,1.3,0.8C1053.3,285,1049.7,286.9,1046.1,288.9z"/>
		</g>
	</g>
	<g>
		<path class="st2" d="M850.6,257.2c-0.7-9.1-4.4-16.8-11.7-22.5c-5.9-4.5-12.8-6.2-20.1-6.6c-11.6-0.6-23.2-0.3-34.8-0.4
			c-5.6,0-11.2,0.1-16.7,0.6c-16.2,1.5-27.5,12.9-28.5,29.2c-1.1,17.8-1,35.7,0,53.6c0.3,5.7,2,11.1,5.2,15.9
			c5.9,8.8,14.6,12.6,24.9,13.4c8.6,0.7,17.2,0.4,25.8,0.5c3.1,0,6.1,0,9.2,0c6.6-0.1,13.2,0,19.8-0.8c12.8-1.6,22.5-9.9,25.9-22.2
			c1.2-4.5,1.5-9.2,1.6-13.9C851.3,288.5,851.8,272.8,850.6,257.2z M841.1,284.5c0,7.7,0.1,15.4-0.3,23c-0.2,2.7-0.4,5.3-1.2,7.9
			c-2.4,8.4-8.1,13-16.6,14.5c-6.3,1.1-12.7,0.8-19.1,0.9c-10.1,0.1-20.3,0.1-30.4-0.2c-3.1-0.1-6.3-0.3-9.3-1.1
			c-8.6-2.2-13.5-7.8-15.1-16.4c-0.9-4.8-0.9-9.6-0.9-14.5c-0.1-12.1-0.3-24.2,0.2-36.3c0.1-3,0.4-5.9,1.2-8.8
			c2.3-8.4,8.5-13.7,17.4-14.8c5.7-0.7,11.5-0.7,17.2-0.7c11.5,0.1,23-0.3,34.5,0.4c6.6,0.4,12.6,2.1,17,7.4c3.6,4.3,4.6,9.5,4.9,15
			C841.2,268.7,841.1,276.6,841.1,284.5z"/>
		<path class="st2" d="M831.7,254.2c0,3.7-3,6.7-6.7,6.8c-3.8,0-6.8-3-6.8-6.8c0-3.7,3-6.7,6.7-6.8
			C828.6,247.3,831.7,250.4,831.7,254.2z"/>
		<path class="st2" d="M794.8,255.4c-15.9-0.1-29.1,12.8-29.2,28.6c-0.1,16.2,12.8,29.4,28.9,29.5c16,0.1,29.1-12.8,29.3-28.7
			C823.9,268.5,811,255.5,794.8,255.4z M794.7,303.3c-10.3,0-18.8-8.4-18.9-18.7c-0.1-10.5,8.2-18.9,18.7-19
			c10.4-0.1,18.9,8.3,19,18.8C813.5,294.8,805.1,303.3,794.7,303.3z"/>
	</g>
	<g>
		<g>
			<path class="st2" d="M628.8,244.4c-3.2-0.6-6.4-0.7-9.6,0.2c-4,1.1-6.2,3.6-6.5,7.7c-0.2,2.1-0.1,4.3-0.2,6.5
				c-0.1,1.1,0.4,1.3,1.4,1.3c4.3,0,8.5,0,12.8-0.1c1.4,0,1.7,0.4,1.7,1.7c-0.1,4.8-0.1,9.5,0,14.3c0,1.3-0.4,1.6-1.6,1.6
				c-4-0.1-8.1,0.1-12.1-0.1c-1.7-0.1-2.2,0.3-2.2,2.1c0.1,19.7,0,39.3,0,59c0,2.4,0,2.4-2.4,2.4c-7,0-14.1,0-21.1,0
				c-1.4,0-1.8-0.3-1.8-1.8c0.1-10,0-20,0-30c0-10.1,0-20.1,0-30.2c0-1.2-0.3-1.7-1.6-1.6c-3,0.1-5.9,0-8.9,0
				c-0.9,0-1.3-0.2-1.3-1.2c0-5.1,0-10.1,0-15.2c0-1,0.5-1.2,1.3-1.2c2.8,0,5.7-0.1,8.5,0c1.5,0.1,2-0.3,1.9-1.8
				c-0.2-4.7-0.2-9.3,1.1-13.9c3-11,10.6-17,21.4-19.1c6.3-1.2,12.7-0.9,18.9,0.5c1.1,0.2,1.5,0.6,1.5,1.7c0,5.2,0,10.5,0,15.7
				C630.2,244.2,630.1,244.6,628.8,244.4z"/>
		</g>
	</g>
	<g>
		<path class="st2" d="M1283.9,276.1l42.1-48.1h-19.3l-31.7,36.2l-27.4-36.2h-39.7l47.4,62l-45,51.4h19.3l34.7-39.7l30.4,39.7h38.7
			L1283.9,276.1z M1227.3,236.2h12.2l73.5,97.3h-11.4L1227.3,236.2z"/>
	</g>
</g>
</svg>
