<?xml version="1.0" encoding="utf-8"?>
<!-- Generator: Adobe Illustrator 22.0.1, SVG Export Plug-In . SVG Version: 6.00 Build 0)  -->
<svg version="1.1" id="Layer_1" xmlns="http://www.w3.org/2000/svg" xmlns:xlink="http://www.w3.org/1999/xlink" x="0px" y="0px"
	 viewBox="0 0 531 509" style="enable-background:new 0 0 531 509;" xml:space="preserve">
<style type="text/css">
	.st0{fill:#6DBE47;}
	.st1{fill:#38C5ED;}
	.st2{fill:#FFFFFF;}
	.st3{fill:none;stroke:url(#SVGID_1_);stroke-width:4.5705;stroke-miterlimit:10;}
	.st4{clip-path:url(#SVGID_5_);fill:url(#SVGID_6_);}
	.st5{fill:none;stroke:#59A5AD;stroke-miterlimit:10;}
	.st6{fill:none;}
	.st7{clip-path:url(#SVGID_8_);fill:url(#SVGID_9_);}
	.st8{fill:#56C1AF;}
	.st9{stroke:#59A5AD;stroke-width:3;stroke-miterlimit:10;}
	.st10{stroke:#59A5AD;stroke-width:2;stroke-miterlimit:10;}
	.st11{fill:url(#SVGID_10_);}
	.st12{clip-path:url(#SVGID_14_);fill:url(#SVGID_15_);}
	.st13{fill:url(#SVGID_16_);}
	.st14{fill:none;stroke:url(#SVGID_17_);stroke-width:4.5705;stroke-miterlimit:10;}
	.st15{fill:none;stroke:#B2B2B2;stroke-miterlimit:10;}
	.st16{fill:#B2B2B2;}
	.st17{fill:none;stroke:url(#SVGID_18_);stroke-width:2;stroke-miterlimit:10;}
	.st18{fill:none;stroke:url(#SVGID_19_);stroke-width:3.1167;stroke-miterlimit:10;}
	.st19{fill:none;stroke:url(#SVGID_20_);stroke-width:2.3162;stroke-miterlimit:10;}
	.st20{fill:none;stroke:url(#SVGID_21_);stroke-width:7.04;stroke-miterlimit:10;}
	.st21{clip-path:url(#SVGID_35_);fill:url(#SVGID_36_);}
	.st22{fill:url(#SVGID_37_);}
	.st23{fill:none;stroke:url(#SVGID_38_);stroke-width:4.5705;stroke-miterlimit:10;}
	.st24{clip-path:url(#SVGID_40_);fill:url(#SVGID_41_);}
	.st25{clip-path:url(#SVGID_43_);fill:url(#SVGID_44_);}
	.st26{clip-path:url(#SVGID_46_);fill:url(#SVGID_47_);}
	.st27{fill:url(#SVGID_48_);}
	.st28{fill:none;stroke:url(#SVGID_49_);stroke-width:4.5705;stroke-miterlimit:10;}
	.st29{fill:none;stroke:url(#SVGID_50_);stroke-width:2;stroke-miterlimit:10;}
	.st30{fill:none;stroke:url(#SVGID_51_);stroke-width:2;stroke-miterlimit:10;}
	.st31{clip-path:url(#SVGID_55_);fill:url(#SVGID_56_);}
	.st32{fill:url(#SVGID_57_);}
	.st33{fill:none;stroke:url(#SVGID_58_);stroke-width:4.5705;stroke-miterlimit:10;}
	.st34{fill:url(#SVGID_59_);}
	.st35{clip-path:url(#SVGID_61_);fill:url(#SVGID_62_);}
	.st36{clip-path:url(#SVGID_64_);fill:url(#SVGID_65_);}
	.st37{fill:none;stroke:url(#SVGID_66_);stroke-width:3.1167;stroke-miterlimit:10;}
	.st38{fill:none;stroke:url(#SVGID_67_);stroke-width:2.3162;stroke-miterlimit:10;}
	.st39{fill:none;stroke:url(#SVGID_68_);stroke-width:7.04;stroke-miterlimit:10;}
	.st40{fill:url(#SVGID_69_);}
	.st41{fill:none;stroke:url(#SVGID_70_);stroke-miterlimit:10;}
	.st42{fill:none;stroke:url(#SVGID_71_);stroke-miterlimit:10;}
	.st43{fill:none;stroke:url(#SVGID_72_);stroke-miterlimit:10;}
	.st44{fill:url(#SVGID_73_);}
	.st45{fill:url(#SVGID_74_);}
	.st46{fill:url(#SVGID_75_);}
	.st47{fill:url(#SVGID_76_);}
	.st48{fill:url(#SVGID_77_);}
	.st49{fill:url(#SVGID_78_);}
	.st50{fill:url(#SVGID_79_);}
	.st51{clip-path:url(#SVGID_81_);fill:url(#SVGID_82_);}
	.st52{fill:none;stroke:#B2B2B2;stroke-width:5.1233;stroke-miterlimit:10;}
	.st53{fill:url(#SVGID_83_);}
</style>
<g>
	<path class="st16" d="M393.3,314.7L361,289c-9.8-7.7-23.5-6.7-32.1,2.2h-0.1l-14.7,15.5c-2.6,2.7-6.5,3.5-9.9,2
		c-9.6-4-56.9-51.4-60.9-60.9c-1.5-3.4-0.7-7.4,2-9.9l15.5-14.8c9-8.5,10-22.3,2.2-32.1l-25.6-32.3c-4.3-5.3-10.5-8.6-17.3-9
		c-6.7-0.3-13.4,2.2-18.2,7l-19.7,19.7c-18.6,18.6-22.5,47.4-9.5,69.9c20.3,35.6,97.4,112.6,132.9,133c8.9,5.1,18.8,7.6,28.5,7.6
		c15.1,0,30.1-5.9,41.4-17.1l19.6-19.7c4.9-4.8,7.4-11.5,7-18.2C401.8,325.2,398.5,318.8,393.3,314.7z M384.6,341L365,360.8
		c-13.8,13.8-35.2,16.7-51.9,7.2c-33.3-19.1-108.3-94.1-127.4-127.4c-9.6-16.7-6.7-38.1,7.2-51.9l19.7-19.7c1.6-1.6,3.8-2.6,6.2-2.6
		h0.1c2.7,0,5.2,1.2,6.9,3.3l25.6,32.3c2.8,3.6,2.5,8.8-0.9,11.9l-15.5,14.8c-7.2,6.8-9.4,17.5-5.5,26.6
		c5.6,13.1,55.7,63.2,68.8,68.8c9.1,3.9,19.8,1.8,26.7-5.5l14.8-15.5c3.2-3.4,8.3-3.7,11.9-0.9l32.3,25.6c2,1.6,3.2,3.8,3.3,6.4h0.1
		C387.4,336.8,386.4,339.2,384.6,341z"/>
	<path class="st16" d="M387.2,334.2c0.1,2.6-0.8,5-2.6,6.8L365,360.8c-13.8,13.8-35.2,16.7-51.9,7.2
		c-33.3-19.1-108.3-94.1-127.4-127.4c-9.6-16.7-6.7-38.1,7.2-51.9l19.7-19.7c1.6-1.6,3.8-2.6,6.2-2.6h0.1c2.7,0,5.2,1.2,6.9,3.3
		l25.6,32.3c2.8,3.6,2.5,8.8-0.9,11.9l-15.5,14.8c-7.2,6.8-9.4,17.5-5.5,26.6c5.6,13.1,55.7,63.2,68.8,68.8
		c9.1,3.9,19.8,1.8,26.7-5.5l14.8-15.5c3.2-3.4,8.3-3.7,11.9-0.9l32.3,25.6C385.9,329.4,387,331.7,387.2,334.2L387.2,334.2z"/>
	<path class="st16" d="M289.6,201c-4.1,0-7.5,3.4-7.5,7.5c0,4.1,3.4,7.5,7.5,7.5c22.3,0,40.4,18.1,40.4,40.4c0,4.1,3.4,7.5,7.5,7.5
		c4.1,0,7.5-3.4,7.5-7.5C345,225.9,320.2,201,289.6,201z"/>
	<path class="st16" d="M371.9,263.9c4.1,0,7.5-3.4,7.5-7.5c0-49.5-40.3-89.8-89.8-89.8c-4.1,0-7.5,3.4-7.5,7.5
		c0,4.1,3.4,7.5,7.5,7.5c41.3,0,74.8,33.6,74.8,74.8C364.5,260.6,367.8,263.9,371.9,263.9z"/>
</g>
</svg>
