<?xml version="1.0" encoding="utf-8"?>
<!-- Generator: Adobe Illustrator 22.0.1, SVG Export Plug-In . SVG Version: 6.00 Build 0)  -->
<svg version="1.1" id="Layer_1" xmlns="http://www.w3.org/2000/svg" xmlns:xlink="http://www.w3.org/1999/xlink" x="0px" y="0px"
	 viewBox="0 0 1403 600" style="enable-background:new 0 0 1403 600;" xml:space="preserve">
<style type="text/css">
	.st0{fill:#6DBE47;}
	.st1{fill:#38C5ED;}
	.st2{fill:#FFFFFF;}
	.st3{fill:none;stroke:url(#SVGID_1_);stroke-width:4.5705;stroke-miterlimit:10;}
	.st4{clip-path:url(#SVGID_5_);fill:url(#SVGID_6_);}
	.st5{fill:none;stroke:#59A5AD;stroke-miterlimit:10;}
	.st6{fill:none;}
	.st7{clip-path:url(#SVGID_8_);fill:url(#SVGID_9_);}
	.st8{fill:#56C1AF;}
	.st9{stroke:#59A5AD;stroke-width:3;stroke-miterlimit:10;}
	.st10{stroke:#59A5AD;stroke-width:2;stroke-miterlimit:10;}
	.st11{fill:url(#SVGID_10_);}
	.st12{clip-path:url(#SVGID_14_);fill:url(#SVGID_15_);}
	.st13{fill:url(#SVGID_16_);}
	.st14{fill:none;stroke:url(#SVGID_17_);stroke-width:4.5705;stroke-miterlimit:10;}
	.st15{fill:none;stroke:#B2B2B2;stroke-miterlimit:10;}
	.st16{fill:#B2B2B2;}
	.st17{fill:none;stroke:url(#SVGID_18_);stroke-width:2;stroke-miterlimit:10;}
	.st18{fill:none;stroke:url(#SVGID_19_);stroke-width:3.1167;stroke-miterlimit:10;}
	.st19{fill:none;stroke:url(#SVGID_20_);stroke-width:2.3162;stroke-miterlimit:10;}
	.st20{fill:none;stroke:url(#SVGID_21_);stroke-width:7.04;stroke-miterlimit:10;}
	.st21{clip-path:url(#SVGID_35_);fill:url(#SVGID_36_);}
	.st22{fill:url(#SVGID_37_);}
	.st23{fill:none;stroke:url(#SVGID_38_);stroke-width:4.5705;stroke-miterlimit:10;}
	.st24{clip-path:url(#SVGID_40_);fill:url(#SVGID_41_);}
	.st25{clip-path:url(#SVGID_43_);fill:url(#SVGID_44_);}
	.st26{clip-path:url(#SVGID_46_);fill:url(#SVGID_47_);}
	.st27{fill:url(#SVGID_48_);}
	.st28{fill:none;stroke:url(#SVGID_49_);stroke-width:4.5705;stroke-miterlimit:10;}
	.st29{fill:none;stroke:url(#SVGID_50_);stroke-width:2;stroke-miterlimit:10;}
	.st30{fill:none;stroke:url(#SVGID_51_);stroke-width:2;stroke-miterlimit:10;}
	.st31{clip-path:url(#SVGID_55_);fill:url(#SVGID_56_);}
	.st32{fill:url(#SVGID_57_);}
	.st33{fill:none;stroke:url(#SVGID_58_);stroke-width:4.5705;stroke-miterlimit:10;}
	.st34{fill:url(#SVGID_59_);}
	.st35{clip-path:url(#SVGID_61_);fill:url(#SVGID_62_);}
	.st36{clip-path:url(#SVGID_64_);fill:url(#SVGID_65_);}
	.st37{fill:none;stroke:url(#SVGID_66_);stroke-width:3.1167;stroke-miterlimit:10;}
	.st38{fill:none;stroke:url(#SVGID_67_);stroke-width:2.3162;stroke-miterlimit:10;}
	.st39{fill:none;stroke:url(#SVGID_68_);stroke-width:7.04;stroke-miterlimit:10;}
	.st40{fill:url(#SVGID_69_);}
	.st41{fill:none;stroke:url(#SVGID_70_);stroke-miterlimit:10;}
	.st42{fill:none;stroke:url(#SVGID_71_);stroke-miterlimit:10;}
	.st43{fill:none;stroke:url(#SVGID_72_);stroke-miterlimit:10;}
	.st44{fill:url(#SVGID_73_);}
	.st45{fill:url(#SVGID_74_);}
	.st46{fill:url(#SVGID_75_);}
	.st47{fill:url(#SVGID_76_);}
	.st48{fill:url(#SVGID_77_);}
	.st49{fill:url(#SVGID_78_);}
	.st50{fill:url(#SVGID_79_);}
	.st51{clip-path:url(#SVGID_81_);fill:url(#SVGID_82_);}
	.st52{fill:none;stroke:#B2B2B2;stroke-width:5.1233;stroke-miterlimit:10;}
	.st53{fill:url(#SVGID_83_);}
</style>
<g>
	<g>
		<defs>
			<path id="SVGID_80_" d="M319.7,176v99.4c-0.1,0-0.2,0.1-0.2,0.1c-7.2,3.2-15.1,4.9-23.2,4.9c-8.2,0-16-1.7-23.3-4.9
				c-0.1,0-0.2-0.1-0.2-0.1V176h-37.7c-3.1,8.8-4.8,18.5-4.8,28.6c0,21,7.4,40.1,19.3,53.9c-13.9-15.2-35.5-24.9-59.6-24.9
				c-5.9,0-11.6,0.6-17.2,1.7v40.3h99.9c3.3,7.3,5.1,15.3,5.2,23.6c0,8.3-1.9,16.3-5.2,23.6h-99.9v40.3c5.5,1.1,11.3,1.7,17.2,1.7
				c24.1,0,45.7-9.7,59.6-24.9c-11.9,13.8-19.3,32.8-19.3,53.9c0,10.1,1.7,19.7,4.8,28.6h37.7v-99.4c0.1,0,0.2-0.1,0.2-0.1
				c7.2-3.2,15.1-4.9,23.3-4.9c8.2,0,16,1.7,23.2,4.9c0.1,0,0.2,0.1,0.2,0.1V422h37.7c3.1-8.8,4.8-18.5,4.8-28.6
				c0-21-7.4-40.1-19.3-53.9c13.9,15.2,35.5,24.9,59.6,24.9c5.9,0,11.6-0.6,17.2-1.7v-40.3h-99.9c-3.3-7.3-5.1-15.3-5.2-23.6
				c0.1-8.3,1.9-16.2,5.2-23.6h99.9v-40.3c-5.5-1.1-11.3-1.7-17.2-1.7c-24.1,0-45.7,9.7-59.6,24.9c11.9-13.8,19.3-32.8,19.3-53.9
				c0-10.1-1.7-19.7-4.8-28.6H319.7z"/>
		</defs>
		<clipPath id="SVGID_1_">
			<use xlink:href="#SVGID_80_"  style="overflow:visible;"/>
		</clipPath>
		
			<linearGradient id="SVGID_3_" gradientUnits="userSpaceOnUse" x1="-2701.2422" y1="488.2946" x2="-2696.4763" y2="488.2946" gradientTransform="matrix(-28.7697 -49.8306 -49.8306 28.7697 -53017.1602 -148234.8906)">
			<stop  offset="0" style="stop-color:#32C3F2"/>
			<stop  offset="0.1374" style="stop-color:#3DC2D3"/>
			<stop  offset="0.4361" style="stop-color:#52C096"/>
			<stop  offset="0.6899" style="stop-color:#61BE6A"/>
			<stop  offset="0.8857" style="stop-color:#6ABD4E"/>
			<stop  offset="1" style="stop-color:#6EBD44"/>
		</linearGradient>
		<polygon style="clip-path:url(#SVGID_1_);fill:url(#SVGID_3_);" points="234.5,528.9 66.3,237.5 358,69.1 526.2,360.5 		"/>
	</g>
	<path class="st8" d="M524.1,268.1c-0.6,0.9-1.1,1.6-1.8,2c-0.6,0.4-1.4,0.7-2.3,0.7c-1,0-2-0.4-3.2-1.2c-1.2-0.8-2.7-1.7-4.4-2.7
		c-1.8-1-3.8-1.9-6.2-2.7c-2.4-0.8-5.2-1.3-8.6-1.3c-3.1,0-5.7,0.4-8.1,1.1c-2.3,0.8-4.3,1.8-5.8,3.2c-1.6,1.4-2.8,3-3.5,4.8
		c-0.8,1.9-1.2,3.9-1.2,6.1c0,2.8,0.7,5.1,2.2,7c1.5,1.9,3.4,3.4,5.8,4.8c2.4,1.3,5.2,2.5,8.3,3.5c3.1,1,6.3,2,9.5,3.2
		c3.2,1.1,6.4,2.4,9.5,3.8c3.1,1.4,5.9,3.2,8.3,5.4c2.4,2.2,4.4,4.9,5.8,8c1.5,3.2,2.2,7,2.2,11.5c0,4.9-0.8,9.5-2.5,13.7
		c-1.7,4.3-4.1,8-7.3,11.2c-3.2,3.2-7.1,5.7-11.8,7.5c-4.7,1.8-10,2.8-15.9,2.8c-3.5,0-6.9-0.3-10.3-1c-3.3-0.7-6.5-1.7-9.5-2.9
		c-3-1.2-5.9-2.8-8.5-4.5c-2.6-1.8-5-3.8-7.1-6l5.2-8.6c0.5-0.7,1-1.3,1.8-1.7c0.7-0.4,1.5-0.6,2.4-0.6c1.2,0,2.5,0.5,3.9,1.6
		c1.4,1.1,3.1,2.3,5.2,3.6c2,1.3,4.4,2.5,7.3,3.6c2.9,1.1,6.3,1.6,10.2,1.6c6.5,0,11.5-1.6,15-4.7c3.5-3.2,5.3-7.5,5.3-13.1
		c0-3.1-0.7-5.6-2.2-7.6c-1.5-2-3.4-3.6-5.8-4.9c-2.4-1.3-5.2-2.4-8.3-3.4c-3.1-0.9-6.3-1.9-9.5-2.9c-3.2-1-6.4-2.3-9.5-3.7
		c-3.1-1.4-5.9-3.2-8.3-5.5c-2.4-2.3-4.4-5.1-5.8-8.4c-1.5-3.3-2.2-7.5-2.2-12.5c0-4,0.8-7.8,2.3-11.5c1.6-3.7,3.8-7,6.8-9.9
		c3-2.9,6.7-5.2,11-6.9c4.4-1.7,9.4-2.6,15-2.6c6.3,0,12.1,1,17.4,3c5.3,2,9.8,4.8,13.6,8.5L524.1,268.1z"/>
	<path class="st8" d="M626.4,334.8c1,0,1.8,0.4,2.5,1.1l7.1,7.7c-4.5,5.4-10,9.6-16.5,12.5c-6.5,2.9-14.3,4.4-23.4,4.4
		c-8,0-15.3-1.4-21.8-4.2c-6.5-2.8-12-6.6-16.6-11.6c-4.6-5-8.1-10.9-10.6-17.8c-2.5-6.9-3.7-14.4-3.7-22.7s1.3-15.8,3.9-22.7
		c2.6-6.9,6.3-12.8,11.1-17.8c4.8-5,10.5-8.8,17.1-11.6c6.6-2.7,14-4.1,22-4.1c7.9,0,15,1.3,21,3.8c6.1,2.6,11.4,6,15.9,10.3
		l-5.9,8.3c-0.4,0.6-0.9,1-1.5,1.5c-0.6,0.4-1.3,0.6-2.3,0.6c-1,0-2.2-0.5-3.5-1.4c-1.3-0.9-3-2-5-3.1c-2-1.1-4.5-2.2-7.6-3.1
		c-3-0.9-6.8-1.4-11.3-1.4c-5.2,0-10.1,0.9-14.4,2.7c-4.4,1.8-8.1,4.5-11.3,8c-3.2,3.5-5.6,7.8-7.4,12.8c-1.8,5-2.6,10.8-2.6,17.2
		c0,6.5,0.9,12.2,2.8,17.3c1.8,5.1,4.4,9.3,7.6,12.8c3.2,3.5,7,6.1,11.3,8c4.3,1.8,9,2.8,14,2.8c3.1,0,5.8-0.2,8.2-0.5
		c2.4-0.3,4.7-0.9,6.7-1.6c2-0.7,4-1.7,5.8-2.8c1.8-1.1,3.6-2.5,5.4-4.1C624.3,335.2,625.3,334.8,626.4,334.8"/>
	<polygon class="st8" points="742.5,249.3 742.5,359.3 724.7,359.3 724.7,310.3 669.4,310.3 669.4,359.3 651.5,359.3 651.5,249.3 
		669.4,249.3 669.4,297.4 724.7,297.4 724.7,249.3 	"/>
	<path class="st8" d="M812.1,344.8c4.2,0,8-0.7,11.3-2.1c3.3-1.4,6.2-3.4,8.5-6c2.3-2.5,4.1-5.6,5.3-9.2c1.2-3.6,1.8-7.6,1.8-12
		v-20.2h17.8v20.2c0,6.5-1,12.5-3.1,18c-2.1,5.5-5,10.2-8.9,14.2c-3.9,4-8.6,7.1-14.1,9.4c-5.5,2.3-11.8,3.4-18.7,3.4
		c-6.9,0-13.1-1.1-18.7-3.4c-5.5-2.3-10.2-5.4-14.1-9.4c-3.9-4-6.8-8.7-8.9-14.2c-2.1-5.5-3.1-11.5-3.1-18v-20.2h17.9v20.1
		c0,4.4,0.6,8.4,1.8,12c1.2,3.6,3,6.7,5.3,9.2c2.3,2.6,5.1,4.6,8.4,6C804.1,344.1,807.9,344.8,812.1,344.8"/>
	<polygon class="st8" points="957.4,264.2 923.1,264.2 923.1,359.3 905.3,359.3 905.3,264.2 870.9,264.2 870.9,249.3 957.4,249.3 	
		"/>
	<path class="st8" d="M1047.4,255.9c0,1-0.2,2-0.5,3c-0.3,1-0.8,1.9-1.3,2.8l-59,83.2h59.7v14.4h-83.1v-7c0-1,0.2-1.9,0.5-2.7
		c0.3-0.8,0.7-1.6,1.2-2.4l59.3-83.4h-57.7v-14.4h81V255.9z"/>
	<polygon class="st8" points="1133.6,344.8 1133.5,359.3 1064.9,359.3 1064.9,249.3 1133.5,249.3 1133.5,263.7 1082.9,263.7 
		1082.9,296.9 1123.4,296.9 1123.4,310.8 1082.9,310.8 1082.9,344.8 	"/>
	<path class="st8" d="M1244,249.3v110h-9.1c-1.4,0-2.5-0.2-3.5-0.7c-1-0.5-1.9-1.3-2.8-2.4l-60.4-77.6c0.2,1.5,0.3,2.9,0.3,4.4
		c0.1,1.4,0.1,2.8,0.1,4v72.3h-15.7v-110h9.3c0.8,0,1.4,0,1.9,0.1c0.5,0.1,1,0.2,1.5,0.4c0.5,0.2,0.9,0.5,1.3,0.9
		c0.4,0.4,0.8,0.9,1.3,1.5l60.5,77.7c-0.2-1.6-0.3-3.1-0.3-4.7c-0.1-1.5-0.1-3-0.1-4.3v-71.7H1244z"/>
	<polyline class="st8" points="774.7,264.2 767.8,264.2 767.8,249.3 785.2,249.3 785.2,264.2 778.3,264.2 	"/>
	<polyline class="st8" points="846.4,264.2 839.5,264.2 839.5,249.3 856.9,249.3 856.9,264.2 850,264.2 	"/>
</g>
</svg>
